<?xml version="1.0" encoding="utf-8"?>
<!-- Generator: Adobe Illustrator 25.2.3, SVG Export Plug-In . SVG Version: 6.00 Build 0)  -->
<svg version="1.1" id="Capa_1" xmlns="http://www.w3.org/2000/svg" xmlns:xlink="http://www.w3.org/1999/xlink" x="0px" y="0px"
	 viewBox="0 0 1133.86 850.39" style="enable-background:new 0 0 1133.86 850.39;" xml:space="preserve">
<style type="text/css">
	.st0{fill:#FEFEFE;}
	.st1{fill:#FB7C8F;}
	.st2{fill:#FC4763;}
	.st3{fill:#FC304F;}
</style>
<g>
	<path class="st0" d="M570.88,672.67l0.07-0.09c7.34-4.52,14.8-8.86,22-13.59c32.92-21.61,65.72-43.4,98.65-64.99
		c41.68-27.33,83.41-54.6,125.24-81.7c4.4-2.85,5.95-4.96,4.54-10.77c-9.37-38.49-18.06-77.14-26.99-115.74
		c-6.58-28.44-13.14-56.89-19.77-85.32c-6.63-28.44-13.42-56.85-19.95-85.32c-1.02-4.43-2.33-4.37-5.76-2.11
		c-33.81,22.36-67.75,44.5-101.51,66.92c-3.86,2.56-5.77,1.7-8.04-1.59c-11.31-16.41-22.72-32.76-34.08-49.14
		c-11.92-17.18-23.85-34.35-35.71-51.58c-1.36-1.98-2.24-3.21-4.15-0.48c-9.97,14.33-20.05,28.58-30.05,42.88
		c-13.99,20-28.02,39.98-41.85,60.1c-1.94,2.83-3.48,2.32-5.66,0.89c-34.38-22.7-68.81-45.32-103.06-68.2
		c-4.05-2.71-4.76-1.55-5.64,2.3c-5.22,22.63-10.63,45.21-15.87,67.83c-9.57,41.36-19.01,82.75-28.61,124.11
		c-7.5,32.32-15.08,64.62-22.85,96.88c-0.83,3.44-0.06,5,2.73,6.81c24.12,15.6,48.16,31.33,72.2,47.05
		c26.66,17.43,53.31,34.86,79.95,52.32c21.82,14.3,43.54,28.75,65.44,42.93c10.85,7.03,21.28,14.7,32.67,20.88
		c1.47,1.73,2.82,0.48,4.2-0.17C569.93,673.9,570.65,673.69,570.88,672.67z"/>
	<path class="st1" d="M564.82,673.94c-11.39-6.18-21.83-13.85-32.67-20.88c-21.89-14.19-43.62-28.63-65.44-42.93
		c-26.64-17.46-53.29-34.89-79.95-52.32c-24.05-15.72-48.08-31.45-72.2-47.05c-2.8-1.81-3.56-3.37-2.73-6.81
		c7.77-32.26,15.35-64.56,22.85-96.88c9.6-41.36,19.04-82.75,28.61-124.11c5.24-22.62,10.65-45.2,15.87-67.83
		c0.89-3.85,1.59-5.01,5.64-2.3c34.25,22.88,68.69,45.5,103.06,68.2c2.17,1.44,3.71,1.94,5.66-0.89
		c13.83-20.12,27.86-40.09,41.85-60.1c10-14.3,20.08-28.56,30.05-42.88c1.9-2.73,2.78-1.5,4.15,0.48
		c11.86,17.22,23.79,34.4,35.71,51.58c11.36,16.38,22.77,32.73,34.08,49.14c2.27,3.3,4.18,4.16,8.04,1.59
		c33.76-22.43,67.7-44.57,101.51-66.92c3.43-2.27,4.74-2.32,5.76,2.11c6.53,28.47,13.31,56.88,19.95,85.32
		c6.63,28.43,13.19,56.88,19.77,85.32c8.93,38.6,17.62,77.25,26.99,115.74c1.41,5.81-0.14,7.92-4.54,10.77
		c-41.83,27.1-83.56,54.37-125.24,81.7c-32.93,21.59-65.73,43.38-98.65,64.99c-7.2,4.73-14.66,9.07-22,13.59
		c-0.09-1.4,0.51-2.47,1.29-3.64c9.22-13.72,19.01-27.04,28.29-40.73c10.68-15.76,21.77-31.24,32.55-46.94
		c9.66-14.07,19.76-27.84,29.5-41.86c13.88-19.98,27.57-40.09,41.43-60.08c11.61-16.75,23.29-33.46,35.07-50.1
		c2.25-3.18,1.69-5.46-0.45-8.43c-8.99-12.52-17.75-25.2-26.54-37.86c-11.81-16.99-23.58-34.01-35.36-51.02
		c-6.3-9.11-12.55-18.26-18.87-27.35c-4.35-6.26-8.88-12.4-13.14-18.73c-1.53-2.27-3.19-2.33-4.95-0.89
		c-2.96,2.44-6.39,4.09-9.56,6.18c-15.48,10.19-30.93,20.43-46.35,30.71c-5.34,3.56-10.57,7.3-15.85,10.96
		c-0.67,0.01-1.35,0.01-2.02,0.02c-1.37-2.64-4.32-2.91-6.5-4.35c-20.95-13.89-41.91-27.75-62.86-41.63
		c-5.03-3.33-5.73-3.11-9.17,1.92c-6.06,8.86-12.23,17.66-18.39,26.45c-5.98,8.53-12.05,17-18.02,25.54
		c-10.31,14.75-20.56,29.54-30.85,44.31c-8.52,12.24-17.08,24.45-25.58,36.71c-1.34,1.93-2.45,3.93-0.68,6.39
		c3.97,5.51,7.71,11.2,11.71,16.7c11.2,15.41,21.66,31.33,32.99,46.66c10.43,14.1,19.95,28.88,29.98,43.28
		c8.33,11.97,16.88,23.79,25.22,35.75c11.74,16.83,23.35,33.74,35.06,50.59c7.82,11.26,15.67,22.5,23.57,33.7
		c3.89,5.52,7.15,11.53,12.38,16.01c0.03,0.29,0.08,0.57,0.16,0.85C564.96,672.45,564.89,673.2,564.82,673.94z"/>
	<path class="st2" d="M564.82,673.94c0.07-0.74,0.14-1.49,0.21-2.23c1.35-0.05,2.37-0.14,3-1.86c3.15-8.55,4.92-17.49,6.64-26.33
		c3.44-17.62,7.45-35.13,11.75-52.51c3.19-12.91,5.82-25.97,9.28-38.83c4.85-18.01,8.18-36.42,12.34-54.62
		c3.16-13.83,6.65-27.57,9.86-41.39c3.28-14.12,6.23-28.31,9.64-42.4c2.67-11.04,4.08-22.38,7.96-33.12
		c0.36-0.99,0.66-2.21-0.49-2.59c-3.86-1.26-6.12-4.67-9.48-6.67c-7.45-4.43-14.52-9.51-21.75-14.32
		c-5.62-3.74-11.21-7.53-16.88-11.18c-6.45-4.14-13.24-7.81-18.9-13.09c5.28-3.66,10.51-7.39,15.85-10.96
		c15.42-10.28,30.87-20.52,46.35-30.71c3.17-2.08,6.6-3.74,9.56-6.18c1.75-1.45,3.42-1.39,4.95,0.89
		c4.26,6.32,8.79,12.46,13.14,18.73c6.32,9.1,12.57,18.25,18.87,27.35c11.78,17.02,23.55,34.03,35.36,51.02
		c8.8,12.66,17.56,25.34,26.54,37.86c2.14,2.98,2.7,5.26,0.45,8.43c-11.78,16.63-23.46,33.34-35.07,50.1
		c-13.86,19.99-27.55,40.11-41.43,60.08c-9.74,14.02-19.84,27.79-29.5,41.86c-10.78,15.7-21.87,31.18-32.55,46.94
		c-9.28,13.69-19.07,27.01-28.29,40.73c-0.78,1.17-1.38,2.24-1.29,3.64c0,0-0.07,0.09-0.07,0.09c-0.86-0.03-1.48,0.33-1.86,1.1
		C567.64,674.42,566.29,675.67,564.82,673.94z"/>
	<path class="st1" d="M569.02,673.77c0.38-0.77,1.01-1.14,1.86-1.1C570.65,673.69,569.93,673.9,569.02,673.77z"/>
	<path class="st2" d="M564.86,670.86c-5.23-4.48-8.49-10.5-12.38-16.01c-7.9-11.2-15.75-22.44-23.57-33.7
		c-11.7-16.85-23.32-33.76-35.06-50.59c-8.34-11.96-16.89-23.78-25.22-35.75c-10.03-14.4-19.55-29.18-29.98-43.28
		c-11.33-15.33-21.79-31.25-32.99-46.66c-3.99-5.5-7.74-11.18-11.71-16.7c-1.77-2.46-0.65-4.46,0.68-6.39
		c8.49-12.26,17.05-24.48,25.58-36.71c10.29-14.77,20.54-29.56,30.85-44.31c5.97-8.54,12.04-17.01,18.02-25.54
		c6.16-8.79,12.33-17.59,18.39-26.45c3.44-5.03,4.14-5.25,9.17-1.92c20.95,13.88,41.91,27.75,62.86,41.63
		c2.17,1.44,5.13,1.71,6.5,4.35c-6.68,5.37-13.91,9.91-21.12,14.52c-9.48,6.05-18.94,12.17-28.05,18.74
		c-5.13,3.7-11.27,5.83-15.67,10.74c-1.86,2.07-2.01,3.59-1.7,6.09c0.54,4.35,2.88,8.19,3.38,12.4c1.71,14.32,5.89,28.1,9.06,42.08
		c3.86,17.05,7.65,34.12,11.92,51.08c6.16,24.43,11.16,49.14,16.92,73.67c2.98,12.71,6.17,25.4,8.95,38.14
		c3.44,15.78,7.52,31.42,10.42,47.33C561.5,655.38,564.34,662.88,564.86,670.86z"/>
	<path class="st3" d="M564.86,670.86c-0.52-7.98-3.36-15.48-4.78-23.26c-2.9-15.91-6.97-31.55-10.42-47.33
		c-2.78-12.73-5.96-25.43-8.95-38.14c-5.76-24.53-10.76-49.25-16.92-73.67c-4.28-16.96-8.07-34.03-11.92-51.08
		c-3.16-13.98-7.34-27.76-9.06-42.08c-0.5-4.2-2.84-8.05-3.38-12.4c-0.31-2.5-0.16-4.02,1.7-6.09c4.41-4.91,10.54-7.04,15.67-10.74
		c9.12-6.57,18.58-12.69,28.05-18.74c7.21-4.61,14.45-9.15,21.12-14.52c0.67,0,1.35-0.01,2.02-0.02c5.66,5.29,12.44,8.95,18.9,13.1
		c5.68,3.65,11.26,7.44,16.88,11.18c7.23,4.81,14.3,9.89,21.75,14.32c3.36,2,5.62,5.42,9.48,6.67c1.15,0.38,0.85,1.59,0.49,2.59
		c-3.88,10.74-5.29,22.08-7.96,33.12c-3.41,14.09-6.36,28.28-9.64,42.4c-3.21,13.81-6.7,27.56-9.86,41.39
		c-4.15,18.2-7.49,36.61-12.34,54.62c-3.47,12.87-6.09,25.92-9.28,38.83c-4.3,17.39-8.32,34.89-11.75,52.51
		c-1.72,8.84-3.49,17.78-6.64,26.33c-0.63,1.72-1.65,1.81-3,1.86C564.95,671.43,564.89,671.15,564.86,670.86z"/>
</g>
<g>
	<path class="st0" d="M570.88,672.67l0.07-0.09c7.34-4.52,14.8-8.86,22-13.59c32.92-21.61,65.72-43.4,98.65-64.99
		c41.68-27.33,83.41-54.6,125.24-81.7c4.4-2.85,5.95-4.96,4.54-10.77c-9.37-38.49-18.06-77.14-26.99-115.74
		c-6.58-28.44-13.14-56.89-19.77-85.32c-6.63-28.44-13.42-56.85-19.95-85.32c-1.02-4.43-2.33-4.37-5.76-2.11
		c-33.81,22.36-67.75,44.5-101.51,66.92c-3.86,2.56-5.77,1.7-8.04-1.59c-11.31-16.41-22.72-32.76-34.08-49.14
		c-11.92-17.18-23.85-34.35-35.71-51.58c-1.36-1.98-2.24-3.21-4.15-0.48c-9.97,14.33-20.05,28.58-30.05,42.88
		c-13.99,20-28.02,39.98-41.85,60.1c-1.94,2.83-3.48,2.32-5.66,0.89c-34.38-22.7-68.81-45.32-103.06-68.2
		c-4.05-2.71-4.76-1.55-5.64,2.3c-5.22,22.63-10.63,45.21-15.87,67.83c-9.57,41.36-19.01,82.75-28.61,124.11
		c-7.5,32.32-15.08,64.62-22.85,96.88c-0.83,3.44-0.06,5,2.73,6.81c24.12,15.6,48.16,31.33,72.2,47.05
		c26.66,17.43,53.31,34.86,79.95,52.32c21.82,14.3,43.54,28.75,65.44,42.93c10.85,7.03,21.28,14.7,32.67,20.88
		c1.47,1.73,2.82,0.48,4.2-0.17C569.93,673.9,570.65,673.69,570.88,672.67z"/>
	<path class="st1" d="M564.82,673.94c-11.39-6.18-21.83-13.85-32.67-20.88c-21.89-14.19-43.62-28.63-65.44-42.93
		c-26.64-17.46-53.29-34.89-79.95-52.32c-24.05-15.72-48.08-31.45-72.2-47.05c-2.8-1.81-3.56-3.37-2.73-6.81
		c7.77-32.26,15.35-64.56,22.85-96.88c9.6-41.36,19.04-82.75,28.61-124.11c5.24-22.62,10.65-45.2,15.87-67.83
		c0.89-3.85,1.59-5.01,5.64-2.3c34.25,22.88,68.69,45.5,103.06,68.2c2.17,1.44,3.71,1.94,5.66-0.89
		c13.83-20.12,27.86-40.09,41.85-60.1c10-14.3,20.08-28.56,30.05-42.88c1.9-2.73,2.78-1.5,4.15,0.48
		c11.86,17.22,23.79,34.4,35.71,51.58c11.36,16.38,22.77,32.73,34.08,49.14c2.27,3.3,4.18,4.16,8.04,1.59
		c33.76-22.43,67.7-44.57,101.51-66.92c3.43-2.27,4.74-2.32,5.76,2.11c6.53,28.47,13.31,56.88,19.95,85.32
		c6.63,28.43,13.19,56.88,19.77,85.32c8.93,38.6,17.62,77.25,26.99,115.74c1.41,5.81-0.14,7.92-4.54,10.77
		c-41.83,27.1-83.56,54.37-125.24,81.7c-32.93,21.59-65.73,43.38-98.65,64.99c-7.2,4.73-14.66,9.07-22,13.59
		c-0.09-1.4,0.51-2.47,1.29-3.64c9.22-13.72,19.01-27.04,28.29-40.73c10.68-15.76,21.77-31.24,32.55-46.94
		c9.66-14.07,19.76-27.84,29.5-41.86c13.88-19.98,27.57-40.09,41.43-60.08c11.61-16.75,23.29-33.46,35.07-50.1
		c2.25-3.18,1.69-5.46-0.45-8.43c-8.99-12.52-17.75-25.2-26.54-37.86c-11.81-16.99-23.58-34.01-35.36-51.02
		c-6.3-9.11-12.55-18.26-18.87-27.35c-4.35-6.26-8.88-12.4-13.14-18.73c-1.53-2.27-3.19-2.33-4.95-0.89
		c-2.96,2.44-6.39,4.09-9.56,6.18c-15.48,10.19-30.93,20.43-46.35,30.71c-5.34,3.56-10.57,7.3-15.85,10.96
		c-0.67,0.01-1.35,0.01-2.02,0.02c-1.37-2.64-4.32-2.91-6.5-4.35c-20.95-13.89-41.91-27.75-62.86-41.63
		c-5.03-3.33-5.73-3.11-9.17,1.92c-6.06,8.86-12.23,17.66-18.39,26.45c-5.98,8.53-12.05,17-18.02,25.54
		c-10.31,14.75-20.56,29.54-30.85,44.31c-8.52,12.24-17.08,24.45-25.58,36.71c-1.34,1.93-2.45,3.93-0.68,6.39
		c3.97,5.51,7.71,11.2,11.71,16.7c11.2,15.41,21.66,31.33,32.99,46.66c10.43,14.1,19.95,28.88,29.98,43.28
		c8.33,11.97,16.88,23.79,25.22,35.75c11.74,16.83,23.35,33.74,35.06,50.59c7.82,11.26,15.67,22.5,23.57,33.7
		c3.89,5.52,7.15,11.53,12.38,16.01c0.03,0.29,0.08,0.57,0.16,0.85C564.96,672.45,564.89,673.2,564.82,673.94z"/>
	<path class="st2" d="M564.82,673.94c0.07-0.74,0.14-1.49,0.21-2.23c1.35-0.05,2.37-0.14,3-1.86c3.15-8.55,4.92-17.49,6.64-26.33
		c3.44-17.62,7.45-35.13,11.75-52.51c3.19-12.91,5.82-25.97,9.28-38.83c4.85-18.01,8.18-36.42,12.34-54.62
		c3.16-13.83,6.65-27.57,9.86-41.39c3.28-14.12,6.23-28.31,9.64-42.4c2.67-11.04,4.08-22.38,7.96-33.12
		c0.36-0.99,0.66-2.21-0.49-2.59c-3.86-1.26-6.12-4.67-9.48-6.67c-7.45-4.43-14.52-9.51-21.75-14.32
		c-5.62-3.74-11.21-7.53-16.88-11.18c-6.45-4.14-13.24-7.81-18.9-13.09c5.28-3.66,10.51-7.39,15.85-10.96
		c15.42-10.28,30.87-20.52,46.35-30.71c3.17-2.08,6.6-3.74,9.56-6.18c1.75-1.45,3.42-1.39,4.95,0.89
		c4.26,6.32,8.79,12.46,13.14,18.73c6.32,9.1,12.57,18.25,18.87,27.35c11.78,17.02,23.55,34.03,35.36,51.02
		c8.8,12.66,17.56,25.34,26.54,37.86c2.14,2.98,2.7,5.26,0.45,8.43c-11.78,16.63-23.46,33.34-35.07,50.1
		c-13.86,19.99-27.55,40.11-41.43,60.08c-9.74,14.02-19.84,27.79-29.5,41.86c-10.78,15.7-21.87,31.18-32.55,46.94
		c-9.28,13.69-19.07,27.01-28.29,40.73c-0.78,1.17-1.38,2.24-1.29,3.64c0,0-0.07,0.09-0.07,0.09c-0.86-0.03-1.48,0.33-1.86,1.1
		C567.64,674.42,566.29,675.67,564.82,673.94z"/>
	<path class="st1" d="M569.02,673.77c0.38-0.77,1.01-1.14,1.86-1.1C570.65,673.69,569.93,673.9,569.02,673.77z"/>
	<path class="st2" d="M564.86,670.86c-5.23-4.48-8.49-10.5-12.38-16.01c-7.9-11.2-15.75-22.44-23.57-33.7
		c-11.7-16.85-23.32-33.76-35.06-50.59c-8.34-11.96-16.89-23.78-25.22-35.75c-10.03-14.4-19.55-29.18-29.98-43.28
		c-11.33-15.33-21.79-31.25-32.99-46.66c-3.99-5.5-7.74-11.18-11.71-16.7c-1.77-2.46-0.65-4.46,0.68-6.39
		c8.49-12.26,17.05-24.48,25.58-36.71c10.29-14.77,20.54-29.56,30.85-44.31c5.97-8.54,12.04-17.01,18.02-25.54
		c6.16-8.79,12.33-17.59,18.39-26.45c3.44-5.03,4.14-5.25,9.17-1.92c20.95,13.88,41.91,27.75,62.86,41.63
		c2.17,1.44,5.13,1.71,6.5,4.35c-6.68,5.37-13.91,9.91-21.12,14.52c-9.48,6.05-18.94,12.17-28.05,18.74
		c-5.13,3.7-11.27,5.83-15.67,10.74c-1.86,2.07-2.01,3.59-1.7,6.09c0.54,4.35,2.88,8.19,3.38,12.4c1.71,14.32,5.89,28.1,9.06,42.08
		c3.86,17.05,7.65,34.12,11.92,51.08c6.16,24.43,11.16,49.14,16.92,73.67c2.98,12.71,6.17,25.4,8.95,38.14
		c3.44,15.78,7.52,31.42,10.42,47.33C561.5,655.38,564.34,662.88,564.86,670.86z"/>
	<path class="st3" d="M564.86,670.86c-0.52-7.98-3.36-15.48-4.78-23.26c-2.9-15.91-6.97-31.55-10.42-47.33
		c-2.78-12.73-5.96-25.43-8.95-38.14c-5.76-24.53-10.76-49.25-16.92-73.67c-4.28-16.96-8.07-34.03-11.92-51.08
		c-3.16-13.98-7.34-27.76-9.06-42.08c-0.5-4.2-2.84-8.05-3.38-12.4c-0.31-2.5-0.16-4.02,1.7-6.09c4.41-4.91,10.54-7.04,15.67-10.74
		c9.12-6.57,18.58-12.69,28.05-18.74c7.21-4.61,14.45-9.15,21.12-14.52c0.67,0,1.35-0.01,2.02-0.02c5.66,5.29,12.44,8.95,18.9,13.1
		c5.68,3.65,11.26,7.44,16.88,11.18c7.23,4.81,14.3,9.89,21.75,14.32c3.36,2,5.62,5.42,9.48,6.67c1.15,0.38,0.85,1.59,0.49,2.59
		c-3.88,10.74-5.29,22.08-7.96,33.12c-3.41,14.09-6.36,28.28-9.64,42.4c-3.21,13.81-6.7,27.56-9.86,41.39
		c-4.15,18.2-7.49,36.61-12.34,54.62c-3.47,12.87-6.09,25.92-9.28,38.83c-4.3,17.39-8.32,34.89-11.75,52.51
		c-1.72,8.84-3.49,17.78-6.64,26.33c-0.63,1.72-1.65,1.81-3,1.86C564.95,671.43,564.89,671.15,564.86,670.86z"/>
</g>
</svg>
